<?xml version="1.0" encoding="UTF-8"?>
<svg id="Capa_9" data-name="Capa 9" xmlns="http://www.w3.org/2000/svg" xmlns:xlink="http://www.w3.org/1999/xlink" viewBox="0 0 1080 1080">
  <defs>
    <style>
      .cls-1 {
        fill: #e69eef;
      }

      .cls-1, .cls-2, .cls-3, .cls-4, .cls-5, .cls-6, .cls-7, .cls-8, .cls-9, .cls-10, .cls-11, .cls-12, .cls-13, .cls-14, .cls-15, .cls-16, .cls-17 {
        stroke-width: 0px;
      }

      .cls-2 {
        fill: url(#Degradado_sin_nombre_198);
      }

      .cls-3 {
        fill: #5a9db9;
      }

      .cls-4 {
        fill: url(#Degradado_sin_nombre_217);
      }

      .cls-5 {
        fill: #fbdf07;
      }

      .cls-6 {
        fill: url(#Degradado_sin_nombre_261);
      }

      .cls-18 {
        fill: #65529b;
      }

      .cls-18, .cls-19 {
        stroke: #fec803;
        stroke-miterlimit: 10;
        stroke-width: 15px;
      }

      .cls-7 {
        fill: #ff7f3f;
      }

      .cls-8 {
        fill: url(#Degradado_sin_nombre_209);
      }

      .cls-9 {
        fill: #67d97d;
      }

      .cls-10 {
        fill: url(#Degradado_sin_nombre_185);
      }

      .cls-11 {
        fill: url(#Degradado_sin_nombre_127);
      }

      .cls-12 {
        fill: #f94892;
      }

      .cls-19, .cls-15 {
        fill: #fff;
      }

      .cls-13 {
        fill: #fa6072;
      }

      .cls-14 {
        fill: #89cffd;
      }

      .cls-16 {
        fill: url(#Degradado_sin_nombre_229);
      }

      .cls-17 {
        fill: url(#Degradado_sin_nombre_250);
      }
    </style>
    <linearGradient id="Degradado_sin_nombre_250" data-name="Degradado sin nombre 250" x1="-11120.34" y1="5560.31" x2="-10870.16" y2="5828.59" gradientTransform="translate(-11125.85 -4157.85) rotate(-129.57)" gradientUnits="userSpaceOnUse">
      <stop offset="0" stop-color="#5a9db9" stop-opacity="0"/>
      <stop offset=".44" stop-color="rgba(89, 155, 183, .02)" stop-opacity=".02"/>
      <stop offset=".6" stop-color="rgba(87, 152, 179, .08)" stop-opacity=".08"/>
      <stop offset=".71" stop-color="rgba(83, 145, 171, .19)" stop-opacity=".19"/>
      <stop offset=".8" stop-color="rgba(78, 135, 159, .34)" stop-opacity=".34"/>
      <stop offset=".88" stop-color="rgba(71, 123, 144, .54)" stop-opacity=".54"/>
      <stop offset=".95" stop-color="rgba(62, 108, 126, .78)" stop-opacity=".78"/>
      <stop offset="1" stop-color="#375f6e"/>
    </linearGradient>
    <linearGradient id="Degradado_sin_nombre_229" data-name="Degradado sin nombre 229" x1="-10808.89" y1="5646.8" x2="-10802.66" y2="6003.87" gradientTransform="translate(-11125.85 -4157.85) rotate(-129.57)" gradientUnits="userSpaceOnUse">
      <stop offset="0" stop-color="#fa6072" stop-opacity="0"/>
      <stop offset=".41" stop-color="rgba(249, 95, 113, .01)" stop-opacity=".01"/>
      <stop offset=".55" stop-color="rgba(245, 94, 112, .05)" stop-opacity=".05"/>
      <stop offset=".66" stop-color="rgba(239, 92, 109, .12)" stop-opacity=".12"/>
      <stop offset=".74" stop-color="rgba(230, 89, 106, .23)" stop-opacity=".23"/>
      <stop offset=".82" stop-color="rgba(218, 85, 102, .36)" stop-opacity=".36"/>
      <stop offset=".88" stop-color="rgba(204, 81, 96, .53)" stop-opacity=".53"/>
      <stop offset=".94" stop-color="rgba(187, 75, 90, .73)" stop-opacity=".73"/>
      <stop offset=".99" stop-color="rgba(168, 69, 82, .95)" stop-opacity=".95"/>
      <stop offset="1" stop-color="#a44451"/>
    </linearGradient>
    <linearGradient id="Degradado_sin_nombre_261" data-name="Degradado sin nombre 261" x1="-11409.76" y1="5742.49" x2="-11049.06" y2="5748.78" gradientTransform="translate(-11125.85 -4157.85) rotate(-129.57)" gradientUnits="userSpaceOnUse">
      <stop offset="0" stop-color="#f94892" stop-opacity="0"/>
      <stop offset=".42" stop-color="rgba(247, 71, 145, .01)" stop-opacity=".01"/>
      <stop offset=".57" stop-color="rgba(242, 70, 142, .06)" stop-opacity=".06"/>
      <stop offset=".68" stop-color="rgba(233, 68, 137, .15)" stop-opacity=".15"/>
      <stop offset=".77" stop-color="rgba(219, 64, 129, .27)" stop-opacity=".27"/>
      <stop offset=".84" stop-color="rgba(202, 60, 120, .42)" stop-opacity=".42"/>
      <stop offset=".91" stop-color="rgba(181, 55, 108, .62)" stop-opacity=".62"/>
      <stop offset=".97" stop-color="rgba(157, 49, 95, .84)" stop-opacity=".84"/>
      <stop offset="1" stop-color="#8c2d56"/>
    </linearGradient>
    <linearGradient id="Degradado_sin_nombre_127" data-name="Degradado sin nombre 127" x1="-11470" y1="6078.29" x2="-11246.32" y2="5838.42" gradientTransform="translate(-11125.85 -4157.85) rotate(-129.57)" gradientUnits="userSpaceOnUse">
      <stop offset="0" stop-color="#ff7f3f" stop-opacity="0"/>
      <stop offset=".4" stop-color="rgba(254, 126, 62, 0)" stop-opacity="0"/>
      <stop offset=".54" stop-color="rgba(251, 125, 62, .05)" stop-opacity=".05"/>
      <stop offset=".64" stop-color="rgba(247, 124, 61, .11)" stop-opacity=".11"/>
      <stop offset=".72" stop-color="rgba(241, 121, 61, .2)" stop-opacity=".2"/>
      <stop offset=".79" stop-color="rgba(233, 118, 59, .32)" stop-opacity=".32"/>
      <stop offset=".86" stop-color="rgba(224, 115, 58, .46)" stop-opacity=".46"/>
      <stop offset=".91" stop-color="rgba(212, 110, 56, .63)" stop-opacity=".63"/>
      <stop offset=".96" stop-color="rgba(199, 105, 54, .83)" stop-opacity=".83"/>
      <stop offset="1" stop-color="#bc6535"/>
    </linearGradient>
    <linearGradient id="Degradado_sin_nombre_209" data-name="Degradado sin nombre 209" x1="-10699.08" y1="6250.03" x2="-11053.44" y2="6250.03" gradientTransform="translate(-11125.85 -4157.85) rotate(-129.57)" gradientUnits="userSpaceOnUse">
      <stop offset="0" stop-color="#67d97d" stop-opacity="0"/>
      <stop offset=".42" stop-color="rgba(102, 215, 124, .01)" stop-opacity=".01"/>
      <stop offset=".57" stop-color="rgba(101, 211, 122, .06)" stop-opacity=".06"/>
      <stop offset=".68" stop-color="rgba(100, 205, 119, .15)" stop-opacity=".15"/>
      <stop offset=".77" stop-color="rgba(98, 195, 115, .27)" stop-opacity=".27"/>
      <stop offset=".85" stop-color="rgba(96, 182, 109, .43)" stop-opacity=".43"/>
      <stop offset=".91" stop-color="rgba(92, 166, 102, .63)" stop-opacity=".63"/>
      <stop offset=".97" stop-color="rgba(89, 148, 93, .86)" stop-opacity=".86"/>
      <stop offset="1" stop-color="#578959"/>
    </linearGradient>
    <linearGradient id="Degradado_sin_nombre_217" data-name="Degradado sin nombre 217" x1="-10654.34" y1="5913.72" x2="-10889.55" y2="6194.03" gradientTransform="translate(-11125.85 -4157.85) rotate(-129.57)" gradientUnits="userSpaceOnUse">
      <stop offset="0" stop-color="#e69eef" stop-opacity="0"/>
      <stop offset=".41" stop-color="rgba(229, 157, 237, .01)" stop-opacity=".01"/>
      <stop offset=".56" stop-color="rgba(225, 155, 233, .06)" stop-opacity=".06"/>
      <stop offset=".67" stop-color="rgba(219, 152, 227, .13)" stop-opacity=".13"/>
      <stop offset=".75" stop-color="rgba(211, 148, 217, .24)" stop-opacity=".24"/>
      <stop offset=".83" stop-color="rgba(200, 143, 204, .39)" stop-opacity=".39"/>
      <stop offset=".89" stop-color="rgba(187, 136, 189, .56)" stop-opacity=".56"/>
      <stop offset=".95" stop-color="rgba(171, 128, 170, .77)" stop-opacity=".77"/>
      <stop offset="1" stop-color="#9a7896"/>
    </linearGradient>
    <linearGradient id="Degradado_sin_nombre_185" data-name="Degradado sin nombre 185" x1="-10986.66" y1="6438.3" x2="-11236.59" y2="6170.28" gradientTransform="translate(-11125.85 -4157.85) rotate(-129.57)" gradientUnits="userSpaceOnUse">
      <stop offset="0" stop-color="#89cffd" stop-opacity="0"/>
      <stop offset=".4" stop-color="rgba(136, 206, 252, .01)" stop-opacity=".01"/>
      <stop offset=".55" stop-color="rgba(135, 204, 249, .05)" stop-opacity=".05"/>
      <stop offset=".65" stop-color="rgba(133, 200, 243, .12)" stop-opacity=".12"/>
      <stop offset=".73" stop-color="rgba(129, 194, 236, .21)" stop-opacity=".21"/>
      <stop offset=".81" stop-color="rgba(125, 187, 226, .34)" stop-opacity=".34"/>
      <stop offset=".87" stop-color="rgba(120, 178, 213, .5)" stop-opacity=".5"/>
      <stop offset=".93" stop-color="rgba(114, 167, 198, .68)" stop-opacity=".68"/>
      <stop offset=".98" stop-color="rgba(107, 155, 182, .89)" stop-opacity=".89"/>
      <stop offset="1" stop-color="#6895ae"/>
    </linearGradient>
    <linearGradient id="Degradado_sin_nombre_198" data-name="Degradado sin nombre 198" x1="-11292.02" y1="6349.82" x2="-11304.56" y2="5990.76" gradientTransform="translate(-11125.85 -4157.85) rotate(-129.57)" gradientUnits="userSpaceOnUse">
      <stop offset="0" stop-color="#fbdf07" stop-opacity="0"/>
      <stop offset=".41" stop-color="rgba(249, 222, 7, .01)" stop-opacity=".01"/>
      <stop offset=".56" stop-color="rgba(245, 218, 7, .06)" stop-opacity=".06"/>
      <stop offset=".67" stop-color="rgba(238, 212, 7, .13)" stop-opacity=".13"/>
      <stop offset=".75" stop-color="rgba(227, 203, 7, .24)" stop-opacity=".24"/>
      <stop offset=".83" stop-color="rgba(213, 191, 8, .39)" stop-opacity=".39"/>
      <stop offset=".89" stop-color="rgba(196, 176, 8, .56)" stop-opacity=".56"/>
      <stop offset=".95" stop-color="rgba(176, 160, 9, .77)" stop-opacity=".77"/>
      <stop offset="1" stop-color="#9a8d0a"/>
    </linearGradient>
  </defs>
  <circle class="cls-18" cx="540.08" cy="540.08" r="532.91"/>
  <path class="cls-3" d="M40.95,493.18c-12.19,127.78,24.39,260.21,112.62,366.97l386.63-319.52-499.25-47.45Z"/>
  <path class="cls-17" d="M40.95,493.18c-12.19,127.78,24.39,260.21,112.62,366.97l386.63-319.52-499.25-47.45Z"/>
  <path class="cls-13" d="M220.84,154.18c-.06.05-.13.11-.19.16C113.98,242.49,53.13,365.51,40.95,493.18l499.25,47.45L220.84,154.18Z"/>
  <path class="cls-16" d="M220.84,154.18c-.06.05-.13.11-.19.16C113.98,242.49,53.13,365.51,40.95,493.18l499.25,47.45L220.84,154.18Z"/>
  <path class="cls-12" d="M153.57,860.14c88.23,106.76,211.4,167.63,339.19,179.73l47.45-499.25-386.63,319.52Z"/>
  <path class="cls-6" d="M153.57,860.14c88.23,106.76,211.4,167.63,339.19,179.73l47.45-499.25-386.63,319.52Z"/>
  <path class="cls-7" d="M492.76,1039.87c127.67,12.09,259.95-24.5,366.62-112.65.06-.05.13-.11.19-.16l-319.36-386.44-47.45,499.25Z"/>
  <path class="cls-11" d="M492.56,1040.03c127.67,12.09,259.95-24.5,366.62-112.65.06-.05.13-.11.19-.16l-319.36-386.44-47.45,499.25Z"/>
  <path class="cls-9" d="M926.45,221.42c-88.15-106.66-211.17-167.52-338.83-179.7l-47.41,498.9,386.25-319.2Z"/>
  <path class="cls-8" d="M926.45,221.42c-88.15-106.66-211.17-167.52-338.83-179.7l-47.41,498.9,386.25-319.2Z"/>
  <path class="cls-1" d="M220.84,154.18l319.36,386.44,47.41-498.9c-127.7-12.18-260.05,24.35-366.77,112.46Z"/>
  <path class="cls-4" d="M220.84,154.18l319.36,386.44,47.41-498.9c-127.7-12.18-260.05,24.35-366.77,112.46Z"/>
  <path class="cls-14" d="M1039.1,588.04c12.09-127.67-24.5-259.95-112.65-366.62l-386.25,319.2,498.9,47.41Z"/>
  <path class="cls-10" d="M1039.1,588.04c12.09-127.67-24.5-259.95-112.65-366.62l-386.25,319.2,498.9,47.41Z"/>
  <path class="cls-5" d="M859.56,927.06c106.64-88.22,167.45-211.31,179.54-339.02l-498.9-47.41,319.36,386.44Z"/>
  <path class="cls-2" d="M859.56,927.06c106.64-88.22,167.45-211.31,179.54-339.02l-498.9-47.41,319.36,386.44Z"/>
  <circle class="cls-19" cx="539.3" cy="540.71" r="29.08"/>
  <g>
    <circle class="cls-15" cx="949.63" cy="767.3" r="17.56"/>
    <circle class="cls-15" cx="669.71" cy="991.34" r="17.56"/>
    <circle class="cls-15" cx="313.36" cy="951.82" r="17.56"/>
    <circle class="cls-15" cx="89.32" cy="671.9" r="17.56"/>
    <circle class="cls-15" cx="128.84" cy="315.54" r="17.56"/>
    <circle class="cls-15" cx="408.76" cy="91.51" r="17.56"/>
    <circle class="cls-15" cx="765.11" cy="131.02" r="17.56"/>
    <circle class="cls-15" cx="989.15" cy="410.95" r="17.56"/>
  </g>
  <g>
    <path class="cls-15" d="M349.14,864.26c-8.28,3.55-11.45,8.94-12.88,12.06-5.46,11.89-.38,23.96,11.68,29.49,11.56,5.31,24.34,1.05,29.69-10.6,3.01-6.56,1.98-13.19.46-17.66l9.92,4.56c.76,7-1.06,13.12-2.79,16.89-4.56,9.92-11.93,14.08-16.43,15.89-8.92,3.65-16.99,2.83-24.69-.71-10.09-4.63-15.14-12.01-17.38-18.6-2.73-8.11-1.53-15.5,1.94-23.04,2.3-5,5.42-9.43,10.64-12.79l9.84,4.52Z"/>
    <path class="cls-15" d="M339.02,839.16l59.79,27.45-3.69,8.04-59.79-27.45,3.69-8.04Z"/>
    <path class="cls-15" d="M380.54,815.33l3.69-8.04,34.53,15.85-3.69,8.04-3.61-1.66c2.48,5.41,1.06,10.02-.07,12.48-4.89,10.66-16.54,12.66-26.05,8.29-11.24-5.16-14.58-16.03-10.41-25.13,1.17-2.54,3.86-6.67,9.63-7.99l-4.02-1.85ZM389.27,842.18c5.99,2.75,12.72,1.27,15.39-4.55,2.33-5.08.79-11.45-6.43-14.77-7.55-3.46-13.3-.45-15.63,4.64-2.67,5.82.51,11.85,6.67,14.68Z"/>
    <path class="cls-15" d="M404.93,786.22c-1.69.22-4.04,1.02-5.21,3.57-.53,1.15-.49,2.16-.23,2.87.22.6.73,1.23,1.46,1.57.9.42,1.67.27,2.5-.24.56-.34.95-.76,2.64-2.07l3.93-3.16c1.73-1.39,3.42-2.7,5.42-3.37,2.75-1.02,5.19-.7,7.56.39,3.12,1.43,5.3,3.82,6.48,6.65,1.71,4.06,1.07,7.84-.59,11.45-1.02,2.21-2.62,4.85-5.64,6.45-2.38,1.29-5.51,1.84-8.35,1.53l-.1-7.99c1.34.12,3.15.06,4.15-.38.72-.27,2.06-1.04,2.93-2.92.56-1.23.76-2.73.36-3.81-.35-.96-1.19-1.94-2.18-2.39-.99-.45-1.96-.5-3.11-.14-1.44.53-2.54,1.42-3.71,2.46l-2.75,2.31c-1.45,1.22-3.22,2.69-5.14,3.4-2.55,1.01-4.74.8-6.95-.21-2.79-1.28-5.01-3.59-6.06-6.26-.92-2.31-1.36-5.69.6-9.95,1.13-2.46,2.52-4.2,4.74-5.57,1.27-.81,3.29-1.77,6.07-1.98l1.19,7.79Z"/>
    <path class="cls-15" d="M384.86,754.66c1.36-2.95,4.59-4.15,7.54-2.79,2.95,1.36,4.15,4.59,2.79,7.54-1.36,2.95-4.59,4.15-7.54,2.79-2.95-1.36-4.15-4.59-2.79-7.54ZM406.14,759.57l34.53,15.85-3.69,8.04-34.53-15.85,3.69-8.04Z"/>
    <path class="cls-15" d="M433.67,727.52c-5.3,2.03-7.62,5.34-8.75,7.8-1.73,3.77-1.27,6.87-.47,9.02.8,2.15,2.75,4.83,6.6,6.6,4.02,1.84,7.44,1.53,9.71.69,2.55-1.01,4.78-3.07,6.14-6.02,1.51-3.28,1.96-7.74.13-11.96l8.94,4.1c.33,2.53.33,6.41-2.11,11.74-2.64,5.74-6.16,9.09-11.11,10.79-3.67,1.29-8.9,1.87-15.22-1.03-6.48-2.97-9.58-7.68-10.96-11.39-1.46-3.95-1.85-9.39,1.28-16.2,1.21-2.62,3.04-5.55,6.79-8.3l9.02,4.14Z"/>
    <path class="cls-15" d="M460.04,687.8c10.58,4.86,14.6,16.43,9.82,26.85-4.78,10.42-16.18,14.91-26.76,10.06-10.66-4.89-14.52-16.4-9.73-26.81,4.78-10.42,16.02-14.99,26.68-10.09ZM456.36,696.04c-7.87-3.61-13.44.08-15.78,5.17-2.33,5.08-1.51,11.72,6.37,15.33,6.64,3.05,12.8,1.11,15.7-5.21,2.9-6.31.36-12.25-6.28-15.3Z"/>
  </g>
  <g>
    <path class="cls-15" d="M151.69,616.83c3.58-.92,8.65-1.86,13.57-.14,5.73,1.97,9.53,6.96,10.9,12.29.88,3.41,1.36,8.88-2.39,14.22-3.62,5.13-8.79,7.11-13.07,8.22l-4.02,1.04,6.11,23.68-8.91,2.3-15.03-58.28,12.84-3.31ZM154.56,644.24l4.02-1.04c7.69-1.98,10.39-6.69,8.99-12.11-.83-3.23-3.63-8.66-13.77-6.05l-3.93,1.01,4.69,18.18Z"/>
    <path class="cls-15" d="M226.04,640.25c2.91,11.27-3.54,21.69-14.63,24.56-11.1,2.86-21.78-3.14-24.69-14.42-2.93-11.36,3.56-21.61,14.66-24.47,11.1-2.86,21.73,2.97,24.66,14.33ZM217.32,642.59c-2.16-8.39-8.55-10.38-13.96-8.98-5.42,1.4-10.04,6.22-7.88,14.61,1.83,7.08,7.21,10.63,13.94,8.89,6.73-1.74,9.73-7.45,7.9-14.53Z"/>
    <path class="cls-15" d="M231.82,590.39l16.43,63.7-8.56,2.21-16.43-63.7,8.56-2.21Z"/>
    <path class="cls-15" d="M248.53,592.7c3.15-.81,6.11.94,6.93,4.08.81,3.15-.94,6.11-4.09,6.93-3.15.81-6.11-.94-6.92-4.09-.81-3.14.94-6.11,4.08-6.92ZM258.16,612.3l9.49,36.79-8.56,2.21-9.49-36.79,8.56-2.21Z"/>
    <path class="cls-15" d="M300.38,613.44c-4.92-2.83-8.95-2.54-11.57-1.86-4.02,1.04-6.12,3.35-7.29,5.33-1.17,1.98-2.02,5.18-.96,9.29,1.1,4.28,3.51,6.74,5.6,7.97,2.4,1.34,5.4,1.78,8.54.96,3.5-.9,7.24-3.36,9.36-7.45l2.46,9.52c-1.76,1.85-4.76,4.3-10.44,5.77-6.12,1.58-10.94.96-15.38-1.81-3.32-2.03-7.07-5.73-8.8-12.45-1.78-6.9-.09-12.28,1.92-15.68,2.14-3.63,6.12-7.36,13.37-9.23,2.8-.72,6.23-1.14,10.73.03l2.48,9.61Z"/>
    <path class="cls-15" d="M304.63,578.23c3.15-.81,6.11.94,6.93,4.08.81,3.15-.94,6.11-4.09,6.92-3.15.81-6.11-.94-6.92-4.09-.81-3.14.94-6.11,4.08-6.92ZM314.25,597.84l9.49,36.79-8.56,2.21-9.49-36.79,8.56-2.21Z"/>
    <path class="cls-15" d="M352,588.1l8.56-2.21,9.49,36.79-8.56,2.21-.99-3.84c-2.63,5.34-7.1,7.14-9.72,7.82-11.36,2.93-20.26-4.84-22.87-14.98-3.09-11.97,3.23-21.43,12.93-23.93,2.71-.7,7.61-1.22,12.27,2.43l-1.1-4.28ZM336.68,611.81c1.65,6.38,7.04,10.67,13.24,9.07,5.42-1.4,9.39-6.61,7.4-14.3-2.07-8.04-8.04-10.6-13.46-9.2-6.2,1.6-8.87,7.88-7.18,14.43Z"/>
    <path class="cls-15" d="M373.02,553.98l16.43,63.7-8.56,2.21-16.43-63.7,8.56-2.21Z"/>
  </g>
  <g>
    <path class="cls-15" d="M210.48,338.29l-23.58,45.82-8.18-4.21,23.58-45.82-12.28-6.32,3.96-7.7,32.74,16.85-3.96,7.7-12.28-6.32Z"/>
    <path class="cls-15" d="M235.96,399.6c-2.77,1.82-6.01,3-8.88,3.25-3.64.36-7.66-.69-11.27-2.55-4.49-2.31-7.61-5.33-9.17-10.2-1.56-4.86-.93-10.42,1.67-15.48,2.68-5.22,7.13-9.32,12.52-11.11,4.25-1.36,8.85-1.23,13.67,1.25,5.38,2.77,7.63,6.87,8.56,9.99,2.02,6.72-.8,13.19-2.62,16.72l-.5.96-24.23-12.47c-1.08,2.49-1.44,5.75-.62,8.31.9,2.79,2.98,4.27,4.9,5.26,2.17,1.11,4.02,1.46,6.24,1.08,1.9-.34,3.65-1.17,5.03-2.08l4.68,7.08ZM235.23,381.88c.63-2.01.57-4.07-.05-5.81-.55-1.5-1.74-3.33-4.3-4.65-2.73-1.4-5.07-1.19-6.65-.68-1.66.47-3.37,1.62-4.64,3.09l15.65,8.05Z"/>
    <path class="cls-15" d="M282.51,390.58l7.86,4.05-17.38,33.78-7.86-4.05,1.82-3.53c-5.51,2.24-10.06.61-12.46-.63-10.43-5.37-11.91-17.09-7.12-26.4,5.66-10.99,16.67-13.85,25.58-9.27,2.49,1.28,6.49,4.15,7.55,9.98l2.02-3.93ZM255.3,398.09c-3.01,5.86-1.84,12.65,3.85,15.58,4.98,2.56,11.41,1.3,15.04-5.76,3.8-7.38,1.04-13.27-3.93-15.83-5.7-2.93-11.86-.02-14.96,6Z"/>
    <path class="cls-15" d="M304.71,411.14l-13.67,26.56-7.86-4.05,13.67-26.56-3.29-1.69,3.72-7.22,3.29,1.69,6.36-12.36,7.86,4.05-6.36,12.36,6.02,3.1-3.72,7.22-6.02-3.1Z"/>
    <path class="cls-15" d="M319.74,409.74l7.86,4.05-1.57,3.05c1.42-.59,3.28-1.05,4.74-1.11,1.98-.1,3.63.45,5.39,1.35,1.93.99,3.85,2.39,5.35,4.78l-6.88,5.49c-1.19-2.03-2.59-2.86-3.39-3.27-1.68-.87-3.49-1.49-5.84-.67-3.37,1.21-5.02,4.42-6.17,6.67l-9,17.49-7.86-4.05,17.38-33.78Z"/>
    <path class="cls-15" d="M370.41,457.23c-5.33,10.35-17.07,13.85-27.26,8.6s-14.17-16.83-8.85-27.18c5.37-10.43,17.03-13.77,27.22-8.52s14.26,16.67,8.89,27.1ZM362.34,453.18c3.96-7.7.52-13.43-4.46-15.99-4.98-2.56-11.64-2.03-15.61,5.67-3.34,6.5-1.68,12.73,4.5,15.91,6.18,3.18,12.22.91,15.56-5.59Z"/>
  </g>
  <g>
    <path class="cls-15" d="M451.84,165.66c3.2-6.79,2.2-11.91,1.37-14.64-3.17-10.43-13.01-15.14-23.59-11.93-10.14,3.08-15.76,12.81-12.65,23.02,1.75,5.76,6.05,9.32,9.48,11.27l-8.71,2.65c-4.34-3.95-6.59-8.76-7.6-12.07-2.65-8.71-.35-15.38,1.46-18.99,3.55-7.21,9.03-11.15,15.79-13.21,8.85-2.69,16.08-.88,21.12,1.99,6.18,3.54,9.52,8.82,11.53,15.44,1.33,4.39,1.83,8.87.44,13.86l-8.63,2.62Z"/>
    <path class="cls-15" d="M449.87,182.45l-30.29,9.21-2.14-7.05,30.29-9.21,2.14,7.05ZM465.85,173.75c.79,2.59-.57,5.12-3.16,5.91s-5.12-.56-5.91-3.15.57-5.12,3.16-5.91,5.12.57,5.91,3.16Z"/>
    <path class="cls-15" d="M437.45,225.6c-2.7-.6-5.28-1.85-7.09-3.42-2.33-1.97-4.03-4.98-5.01-8.22-1.22-4.03-1.22-7.64.78-11.4,2-3.75,5.7-6.6,10.23-7.98,4.68-1.42,9.71-1.14,13.91,1.04,3.28,1.75,5.87,4.58,7.18,8.9,1.46,4.82.32,8.55-1.01,10.92-2.85,5.11-8.35,7.18-11.52,8.14l-.86.26-6.6-21.73c-2.12.8-4.28,2.48-5.33,4.45-1.15,2.16-.83,4.26-.3,5.99.59,1.94,1.46,3.25,2.98,4.36,1.31.94,2.81,1.5,4.16,1.8l-1.52,6.91ZM447.63,214.89c1.57-.79,2.77-2.02,3.45-3.4.58-1.2.98-2.97.28-5.27-.74-2.45-2.23-3.72-3.45-4.37-1.24-.72-2.92-1.08-4.54-.98l4.26,14.03Z"/>
    <path class="cls-15" d="M463.1,225.98l2.14,7.05-2.81.85c4.3,1.99,5.56,5.38,6.09,7.11,1.71,5.61-.38,8.84-1.39,10.17-1.3,1.65-3.17,3.01-7.85,4.43l-18.56,5.64-2.14-7.05,16.83-5.12c7.7-2.34,7.04-5.28,6.23-7.95-.96-3.17-2.38-6.27-12.16-3.3l-14.53,4.42-2.14-7.05,30.29-9.21Z"/>
    <path class="cls-15" d="M471.58,287.22c2.18-4.2,1.79-7.54,1.14-9.7-1.01-3.31-3.01-4.98-4.7-5.88s-4.38-1.5-7.77-.47c-3.53,1.07-5.48,3.16-6.44,4.94-1.03,2.04-1.29,4.56-.5,7.15.87,2.88,3.05,5.91,6.53,7.52l-7.84,2.38c-1.6-1.4-3.75-3.81-5.17-8.49-1.53-5.04-1.19-9.07.96-12.87,1.57-2.84,4.51-6.09,10.06-7.77,5.68-1.73,10.22-.51,13.13,1.04,3.1,1.65,6.34,4.83,8.16,10.8.7,2.3,1.17,5.15.36,8.93l-7.91,2.41Z"/>
    <path class="cls-15" d="M485.06,298.21l-30.29,9.21-2.14-7.05,30.29-9.21,2.14,7.05ZM501.04,289.51c.79,2.59-.56,5.12-3.15,5.91s-5.12-.56-5.91-3.16c-.79-2.59.57-5.12,3.16-5.91s5.12.56,5.91,3.15Z"/>
    <path class="cls-15" d="M494.5,329.3l2.14,7.05-30.29,9.21-2.14-7.05,3.17-.96c-4.54-2-6.2-5.66-6.86-7.82-2.84-9.35,3.31-17.04,11.66-19.57,9.86-3,17.96,1.93,20.38,9.92.68,2.23,1.28,6.29-1.58,10.31l3.53-1.07ZM474.22,317.38c-5.25,1.6-8.63,6.24-7.08,11.35,1.36,4.46,5.84,7.58,12.17,5.65,6.62-2.01,8.54-7.07,7.18-11.54-1.55-5.11-6.87-7.11-12.27-5.47Z"/>
    <path class="cls-15" d="M522.94,384.08l-5.07-16.69-12.16,3.7,4.9,16.12-6.91,2.1-4.9-16.12-22.01,6.69-2.23-7.34,47.99-14.58,7.3,24.03-6.91,2.1Z"/>
    <path class="cls-15" d="M516.44,401.46l-30.29,9.21-2.14-7.05,30.29-9.21,2.14,7.05ZM532.42,392.75c.79,2.59-.56,5.12-3.15,5.91s-5.12-.56-5.91-3.15.57-5.12,3.16-5.91,5.12.56,5.91,3.15Z"/>
    <path class="cls-15" d="M517,436.66c2.18-4.2,1.79-7.54,1.14-9.7-1.01-3.31-3.01-4.98-4.7-5.88s-4.38-1.5-7.77-.47c-3.53,1.07-5.48,3.16-6.44,4.94-1.03,2.04-1.29,4.56-.5,7.15.88,2.88,3.05,5.91,6.53,7.53l-7.84,2.38c-1.6-1.4-3.75-3.81-5.17-8.49-1.53-5.04-1.19-9.07.96-12.87,1.57-2.84,4.51-6.09,10.05-7.77,5.68-1.73,10.22-.51,13.13,1.04,3.1,1.65,6.34,4.83,8.16,10.8.7,2.3,1.17,5.15.36,8.93l-7.91,2.41Z"/>
  </g>
  <g>
    <path class="cls-15" d="M746.41,201.55l-48.62-22.32,3.41-7.44,48.62,22.32-3.41,7.44Z"/>
    <path class="cls-15" d="M723.76,203.6l-3.28,7.14-2.84-1.31c2.02,4.63.63,8.23-.17,9.98-2.61,5.69-6.56,6.79-8.31,7.13-2.21.4-4.66.16-9.4-2.02l-18.81-8.64,3.28-7.14,17.06,7.83c7.8,3.58,9.36.77,10.6-1.93,1.47-3.21,2.54-6.69-7.37-11.24l-14.73-6.76,3.28-7.14,30.69,14.09Z"/>
    <path class="cls-15" d="M697.32,243.88l-24.13-11.08,3.28-7.14,24.13,11.08,1.41-3.06,6.56,3.01-1.41,3.06,10.64,4.89c4.74,2.17,7.16,4.79,8.25,7.41.78,1.95,1.35,4.94-.36,8.66-.7,1.53-1.62,2.96-2.98,4.19l-7.07-3.25c1.54-1.06,2.2-1.9,2.67-2.92.4-.87.86-2.25.27-3.67-.2-.53-.92-1.83-3.11-2.84l-11.59-5.32-3.55,7.73-6.56-3.01,3.55-7.73Z"/>
    <path class="cls-15" d="M688.15,281.16l-3.28,7.14-30.69-14.09,3.28-7.14,3.21,1.47c-2.21-4.81-.94-8.91.06-11.09,4.35-9.48,14.7-11.26,23.16-7.37,9.99,4.58,12.96,14.25,9.25,22.34-1.04,2.26-3.43,5.93-8.56,7.1l3.57,1.64ZM680.39,257.29c-5.32-2.44-11.31-1.13-13.69,4.04-2.08,4.52-.7,10.18,5.71,13.13,6.71,3.08,11.82.4,13.9-4.12,2.38-5.18-.46-10.54-5.92-13.05Z"/>
    <path class="cls-15" d="M680.76,297.27l-3.28,7.14-2.84-1.31c2.02,4.63.63,8.23-.17,9.98-2.61,5.69-6.56,6.79-8.31,7.13-2.21.4-4.66.16-9.4-2.02l-18.81-8.64,3.28-7.14,17.06,7.83c7.8,3.58,9.36.77,10.6-1.93,1.47-3.21,2.54-6.69-7.37-11.24l-14.73-6.76,3.28-7.14,30.69,14.09Z"/>
    <path class="cls-15" d="M654.55,337.04l-24.13-11.08,3.28-7.14,24.13,11.08,1.37-2.99,6.56,3.01-1.37,2.99,11.22,5.15-3.28,7.14-11.22-5.15-2.51,5.47-6.56-3.01,2.51-5.47Z"/>
    <path class="cls-15" d="M653.11,357.48l-30.69-14.09,3.28-7.14,30.69,14.09-3.28,7.14ZM672.03,361.84c-1.2,2.62-4.08,3.69-6.7,2.48-2.62-1.21-3.69-4.08-2.48-6.7,1.21-2.62,4.08-3.69,6.7-2.48,2.62,1.2,3.69,4.08,2.48,6.7Z"/>
    <path class="cls-15" d="M668.13,383.97l-53.14-24.4,3.28-7.14,53.14,24.4-3.28,7.14Z"/>
  </g>
  <g>
    <path class="cls-15" d="M920.38,450.73l18.02-4.65-3.39-13.13-17.4,4.49-1.92-7.46,17.4-4.49-6.13-23.77,7.92-2.04,13.36,51.81-25.94,6.69-1.92-7.46Z"/>
    <path class="cls-15" d="M902.15,443.01l-8.43-32.7,7.61-1.96,8.43,32.7-7.61,1.96ZM910.7,460.43c-2.8.72-5.43-.84-6.15-3.63-.72-2.8.83-5.43,3.63-6.15s5.43.83,6.16,3.63c.72,2.8-.84,5.43-3.63,6.16Z"/>
    <path class="cls-15" d="M891.08,471.38l-14.6-56.62,7.61-1.96,14.6,56.62-7.61,1.96Z"/>
    <path class="cls-15" d="M837.81,442.12c-2.58-10.02,3.15-19.29,13.01-21.83,9.86-2.54,19.36,2.79,21.94,12.82,2.6,10.1-3.16,19.21-13.03,21.75-9.87,2.54-19.32-2.64-21.92-12.74ZM845.56,440.04c1.92,7.46,7.6,9.22,12.41,7.98,4.81-1.24,8.93-5.53,7-12.99-1.62-6.29-6.41-9.45-12.39-7.9-5.98,1.54-8.65,6.62-7.03,12.91Z"/>
    <path class="cls-15" d="M817.6,455.61c1.1,1.04,2.97,2.22,5.38,1.59,1.09-.28,1.76-.87,2.11-1.46.29-.49.44-1.19.26-1.89-.22-.86-.75-1.3-1.57-1.58-.54-.19-1.05-.23-2.9-.66l-4.38-.94c-1.93-.41-3.78-.85-5.36-1.85-2.25-1.33-3.39-3.19-3.97-5.44-.76-2.95-.33-5.8.95-8.2,1.84-3.46,4.81-5.13,8.22-6.02,2.1-.54,4.82-.91,7.61.27,2.22.92,4.36,2.77,5.74,4.9l-5.45,4.55c-.67-.99-1.73-2.2-2.59-2.65-.59-.35-1.87-.84-3.66-.38-1.16.3-2.31,1.01-2.83,1.89-.46.78-.67,1.91-.43,2.84.24.93.75,1.63,1.65,2.22,1.17.69,2.4.96,3.78,1.18l3.14.6c1.66.32,3.66.71,5.23,1.63,2.13,1.19,3.21,2.82,3.75,4.91.68,2.64.33,5.47-.92,7.69-1.07,1.93-3.16,4.13-7.2,5.17-2.33.6-4.31.62-6.5-.15-1.27-.42-3.06-1.28-4.77-3.08l4.71-5.19Z"/>
    <path class="cls-15" d="M768.68,459.95c-2.58-10.02,3.15-19.29,13.01-21.83,9.87-2.54,19.36,2.79,21.94,12.82,2.6,10.1-3.16,19.21-13.03,21.75-9.86,2.54-19.32-2.64-21.92-12.74ZM776.43,457.86c1.92,7.46,7.6,9.22,12.41,7.98,4.82-1.24,8.93-5.53,7-12.99-1.62-6.29-6.41-9.45-12.39-7.9-5.98,1.54-8.65,6.62-7.03,12.91Z"/>
    <path class="cls-15" d="M754.79,473.55l-6.63-25.71,7.61-1.96,6.63,25.71,3.26-.84,1.8,6.99-3.26.84,2.92,11.34c1.3,5.05.8,8.57-.54,11.07-1.02,1.84-2.99,4.17-6.95,5.19-1.63.42-3.32.61-5.13.33l-1.94-7.53c1.79.53,2.86.5,3.95.22.93-.24,2.29-.76,3.02-2.1.29-.49.84-1.87.24-4.2l-3.19-12.35-8.23,2.12-1.8-6.99,8.23-2.12Z"/>
    <path class="cls-15" d="M734.77,486.17l-8.43-32.7,7.61-1.96,8.43,32.7-7.61,1.96ZM734.22,505.53l5.37-16.13,5.02.2-2.08,15.7-8.3.24Z"/>
    <path class="cls-15" d="M701.22,494.82l-7.61,1.96-8.43-32.7,7.61-1.96.88,3.42c2.34-4.74,6.31-6.35,8.65-6.95,10.1-2.6,18.01,4.3,20.33,13.31,2.74,10.64-2.88,19.05-11.5,21.27-2.41.62-6.76,1.08-10.91-2.16l.98,3.81ZM714.84,473.75c-1.46-5.67-6.26-9.49-11.77-8.06-4.82,1.24-8.34,5.88-6.58,12.71,1.84,7.15,7.15,9.42,11.97,8.18,5.51-1.42,7.89-7,6.38-12.83Z"/>
  </g>
  <g>
    <path class="cls-15" d="M882.51,752.12l16.55,8.51,6.2-12.05-15.98-8.22,3.52-6.85,15.98,8.22,11.23-21.83,7.27,3.74-24.48,47.57-23.82-12.26,3.52-6.85Z"/>
    <path class="cls-15" d="M860.84,727.43l-6.99-3.6,15.45-30.03,6.99,3.6-1.62,3.14c4.9-1.99,8.94-.54,11.08.56,9.27,4.77,10.59,15.19,6.33,23.46-5.03,9.77-14.81,12.31-22.73,8.24-2.21-1.14-5.77-3.69-6.71-8.87l-1.8,3.5ZM885.03,720.75c2.68-5.21,1.64-11.25-3.43-13.85-4.42-2.28-10.14-1.16-13.37,5.12-3.38,6.56-.93,11.79,3.49,14.07,5.06,2.61,10.55.01,13.3-5.33Z"/>
    <path class="cls-15" d="M845.08,719.32l-6.99-3.6,1.43-2.78c-4.72,1.81-8.25.26-9.97-.62-5.56-2.86-6.49-6.86-6.75-8.62-.3-2.23.05-4.66,2.44-9.3l9.47-18.4,6.99,3.6-8.59,16.69c-3.93,7.63-1.18,9.31,1.46,10.67,3.14,1.62,6.57,2.84,11.56-6.86l7.41-14.41,6.99,3.6-15.45,30.03Z"/>
    <path class="cls-15" d="M806.52,691.36l12.15-23.61,6.99,3.6-12.15,23.61,2.92,1.5-3.3,6.42-2.92-1.5-5.65,10.98-6.99-3.6,5.65-10.98-5.35-2.75,3.3-6.42,5.35,2.75Z"/>
    <path class="cls-15" d="M771.19,681.3l-6.99-3.6,15.45-30.03,6.99,3.6-1.62,3.14c4.9-1.99,8.94-.54,11.08.56,9.27,4.77,10.59,15.19,6.33,23.46-5.03,9.77-14.82,12.31-22.73,8.24-2.21-1.14-5.77-3.69-6.71-8.87l-1.8,3.5ZM795.37,674.62c2.68-5.21,1.64-11.25-3.43-13.85-4.42-2.28-10.14-1.16-13.37,5.12-3.38,6.56-.93,11.79,3.49,14.07,5.06,2.61,10.55.01,13.3-5.33Z"/>
    <path class="cls-15" d="M746.31,658.48c.12,1.51.75,3.63,2.96,4.77,1,.51,1.9.52,2.54.32.54-.17,1.12-.6,1.45-1.24.4-.78.3-1.47-.12-2.23-.28-.51-.64-.87-1.73-2.42l-2.65-3.62c-1.17-1.59-2.26-3.15-2.78-4.95-.8-2.49-.41-4.63.65-6.7,1.39-2.71,3.6-4.55,6.16-5.49,3.67-1.36,7-.64,10.14.98,1.93.99,4.21,2.52,5.5,5.27,1.05,2.16,1.41,4.97,1.03,7.47l-7.1-.23c.16-1.18.18-2.8-.17-3.7-.21-.65-.84-1.88-2.48-2.72-1.07-.55-2.39-.78-3.37-.47-.87.28-1.77.98-2.21,1.84-.44.86-.52,1.72-.25,2.76.42,1.3,1.16,2.31,2.04,3.4l1.94,2.53c1.02,1.34,2.26,2.97,2.81,4.7.8,2.31.53,4.24-.47,6.17-1.25,2.42-3.39,4.3-5.8,5.13-2.09.73-5.11.98-8.82-.93-2.14-1.1-3.63-2.41-4.75-4.43-.67-1.16-1.44-2.99-1.51-5.47l6.97-.74Z"/>
    <path class="cls-15" d="M725.78,649.81l12.15-23.61,6.99,3.6-12.15,23.61,2.92,1.5-3.3,6.42-2.92-1.5-5.65,10.98-6.99-3.6,5.65-10.98-5.35-2.75,3.3-6.42,5.35,2.75Z"/>
    <path class="cls-15" d="M700.23,666.16c-2.57-1.32-3.5-4.24-2.18-6.81s4.24-3.5,6.81-2.18c2.57,1.32,3.5,4.24,2.18,6.81s-4.24,3.5-6.81,2.18ZM705.43,647.46l15.45-30.03,6.99,3.6-15.45,30.03-6.99-3.6Z"/>
    <path class="cls-15" d="M678.07,621.74c1.59,4.79,4.44,6.98,6.58,8.08,3.28,1.69,6.05,1.4,7.99.78,1.95-.62,4.4-2.25,6.13-5.6,1.8-3.5,1.66-6.55,1-8.6-.8-2.31-2.53-4.37-5.1-5.69-2.85-1.47-6.79-2.05-10.61-.59l4-7.77c2.26-.19,5.7-.04,10.34,2.34,4.99,2.57,7.83,5.83,9.14,10.29,1,3.31,1.31,7.98-1.52,13.47-2.9,5.63-7.2,8.2-10.55,9.28-3.57,1.14-8.41,1.27-14.33-1.78-2.28-1.17-4.81-2.93-7.1-6.36l4.04-7.85Z"/>
    <path class="cls-15" d="M643.86,596.73c4.73-9.2,15.17-12.31,24.23-7.65,9.06,4.66,12.6,14.96,7.86,24.16-4.77,9.27-15.14,12.24-24.2,7.58-9.06-4.66-12.67-14.82-7.9-24.09ZM651.02,600.33c-3.52,6.85-.46,11.94,3.96,14.22,4.42,2.28,10.35,1.81,13.87-5.04,2.97-5.78,1.5-11.32-4-14.15-5.49-2.83-10.86-.81-13.83,4.97Z"/>
  </g>
  <g>
    <path class="cls-15" d="M620.85,952.48l38.78-10.12-3.47-13.31,6.52-1.7,5.28,20.24-45.3,11.82-1.81-6.93Z"/>
    <path class="cls-15" d="M615.74,930.39c-.64-2.45.72-4.76,3.16-5.4s4.76.72,5.39,3.16c.64,2.44-.72,4.76-3.16,5.4-2.45.64-4.76-.72-5.4-3.16ZM630.97,922.86l28.59-7.46,1.74,6.66-28.59,7.46-1.74-6.66Z"/>
    <path class="cls-15" d="M633.09,905.99l22.48-5.87,1.74,6.66-22.48,5.87.73,2.79-6.11,1.59-.73-2.79-10.46,2.73-1.74-6.66,10.46-2.73-1.33-5.09,6.11-1.59,1.33,5.09Z"/>
    <path class="cls-15" d="M630.74,849.73l5.05,19.36,12.23,2.1,1.95,7.47-53.83-10.03,42.35-33.98,1.95,7.47-9.69,7.61ZM624.95,854.22l-13.59,10.73,17.17,2.99-3.58-13.72Z"/>
    <path class="cls-15" d="M608.73,837.63l-1.74-6.66,2.58-.67c-1.08-.52-2.31-1.36-3.1-2.16-1.08-1.1-1.62-2.33-2.01-3.83-.43-1.63-.61-3.47,0-5.58l6.75,1.14c-.56,1.74-.31,2.98-.13,3.66.37,1.43.95,2.8,2.64,3.73,2.45,1.32,5.17.61,7.07.12l14.81-3.86,1.74,6.66-28.59,7.46Z"/>
    <path class="cls-15" d="M597.93,796.28l-1.74-6.66,26.28-6.86c6.72-1.75,11.74-2.27,16.1.8,1.97,1.44,4.31,4.02,5.54,8.71.87,3.33.92,6.87-1.08,10.29-1.56,2.65-4.46,5.15-7.8,6.53l-1.68-6.45c1.49-.68,3.11-1.97,3.93-3.28.67-1.04,1.33-2.96.62-5.67-.73-2.79-2.24-4.13-3.27-4.73-2.67-1.62-5.66-.84-7.77-.29l-3.74.97c4.67,2.05,5.85,5.73,6.34,7.63.96,3.67.74,6.99-1.41,10.45-2.04,3.29-5.47,6-10.23,7.24-5.23,1.36-9.34.33-12.17-1.32-3.67-2.09-5.57-5.22-6.47-8.68-.75-2.85-.63-6.29,1.66-9.5l-3.12.82ZM608.38,807.12c2,1.29,4.97,1.82,8.03,1.02,2.85-.74,5.35-2.56,6.46-4.73.77-1.51,1.1-3.55.57-5.59-.55-2.11-1.64-3.78-3.76-4.97-2.62-1.42-5.21-1.32-7.38-.76-3.19.83-5.3,2.47-6.49,4.59-1.21,2.06-1.13,4-.64,5.9.48,1.83,1.4,3.41,3.21,4.53Z"/>
    <path class="cls-15" d="M609.39,749.84c2.49.66,4.85,1.92,6.49,3.46,2.1,1.92,3.57,4.8,4.37,7.85.99,3.8.86,7.18-1.15,10.6s-5.56,5.95-9.84,7.06c-4.41,1.15-9.1.71-12.94-1.49-3-1.75-5.31-4.49-6.37-8.56-1.19-4.55.02-7.99,1.34-10.14,2.85-4.66,8.05-6.38,11.04-7.16l.81-.21,5.35,20.51c2-.67,4.08-2.15,5.13-3.95,1.16-1.97.93-3.94.5-5.57-.48-1.83-1.24-3.09-2.61-4.18-1.18-.92-2.57-1.5-3.82-1.83l1.67-6.38ZM599.5,759.46c-1.49.68-2.65,1.78-3.34,3.05-.58,1.09-1.03,2.73-.46,4.91.6,2.31,1.94,3.56,3.06,4.21,1.13.72,2.68,1.11,4.2,1.08l-3.46-13.24Z"/>
    <path class="cls-15" d="M585.48,748.54l-1.74-6.66,2.65-.69c-3.94-2.02-4.99-5.23-5.42-6.86-1.38-5.3.68-8.23,1.67-9.43,1.28-1.49,3.07-2.69,7.49-3.84l17.52-4.57,1.74,6.66-15.89,4.15c-7.27,1.9-6.76,4.67-6.11,7.18.78,2.99,1.99,5.94,11.22,3.53l13.72-3.58,1.74,6.66-28.59,7.46Z"/>
    <path class="cls-15" d="M581.18,707.08l22.48-5.87,1.74,6.66-22.48,5.87.73,2.78-6.11,1.59-.73-2.78-10.46,2.73-1.74-6.66,10.46-2.73-1.33-5.09,6.11-1.59,1.33,5.09Z"/>
    <path class="cls-15" d="M555.61,699.97c-.64-2.45.72-4.76,3.16-5.4s4.76.72,5.39,3.16c.64,2.45-.72,4.76-3.16,5.4-2.45.64-4.76-.72-5.4-3.16ZM570.84,692.44l28.59-7.46,1.74,6.66-28.59,7.46-1.74-6.66Z"/>
    <path class="cls-15" d="M568.66,684.09l-1.74-6.66,2.65-.69c-3.94-2.02-4.99-5.23-5.42-6.86-1.38-5.3.68-8.23,1.67-9.43,1.28-1.49,3.07-2.69,7.49-3.84l17.52-4.57,1.74,6.66-15.89,4.15c-7.27,1.9-6.76,4.67-6.11,7.18.78,2.99,1.98,5.94,11.22,3.53l13.72-3.58,1.74,6.66-28.59,7.46Z"/>
    <path class="cls-15" d="M554.59,630.17l-1.74-6.66,28.59-7.46,1.74,6.66-2.99.78c4.16,2.03,5.57,5.51,6.1,7.55,2.3,8.83-3.72,15.77-11.6,17.83-9.3,2.43-16.67-2.47-18.64-10.01-.55-2.11-.96-5.92,1.86-9.55l-3.33.87ZM573.06,642.03c4.96-1.29,8.29-5.5,7.03-10.32-1.1-4.21-5.17-7.29-11.14-5.73-6.25,1.63-8.23,6.28-7.13,10.49,1.26,4.82,6.15,6.88,11.24,5.55Z"/>
  </g>
</svg>